<svg xmlns="http://www.w3.org/2000/svg" viewBox="0 0 368.73 240.28"><defs><style>.cls-1{fill:none;}.cls-1,.cls-2{stroke:#000;stroke-width:2px;}.cls-1,.cls-2,.cls-7{stroke-miterlimit:10;}.cls-2{fill:#f7f3ec;}.cls-3{font-size:79px;font-family:GochiHand-Regular, Gochi Hand;letter-spacing:0em;}.cls-3,.cls-4,.cls-7{fill:#ef7c7b;}.cls-4,.cls-6{font-size:108.71px;font-family:Panton-BlackCaps, Panton;font-weight:800;}.cls-5{letter-spacing:-0.02em;}.cls-6{fill:#b8dddc;}.cls-7{stroke:#13110f;}</style></defs><g id="Camada_2" data-name="Camada 2"><g id="Camada_1-2" data-name="Camada 1"><rect class="cls-1" x="4.73" y="6.36" width="363" height="225.79" rx="38.87"/><rect class="cls-2" x="6.82" y="12.4" width="354.37" height="215.47" rx="26.77" transform="translate(-8.75 14.61) rotate(-4.44)"/><text class="cls-3" transform="translate(61.45 180.07)">planner</text><text class="cls-4" transform="translate(27.05 122.67)">C<tspan class="cls-5" x="70.77" y="0">O</tspan><tspan x="142.51" y="0">VID</tspan></text><text class="cls-6" transform="translate(22.66 119.18)">C<tspan class="cls-5" x="70.77" y="0">O</tspan><tspan x="142.51" y="0">VID</tspan></text><path class="cls-7" d="M108.79,58.58c.59.39.14,2.23.52,2.84.94,1.49,3.92,4.15,5.64,4.06s4.63-3.08,5.37-4.74a4.18,4.18,0,0,0,0-1.76,10.28,10.28,0,0,0-1.18-2.84c-.36-.5-1.61-1-1.84-1.62a2.44,2.44,0,0,1,.13-1.36,3.39,3.39,0,0,1,1-1.08,3.93,3.93,0,0,1,1.31-.27,2.32,2.32,0,0,1,1.18.13,2.58,2.58,0,0,1,.52,1.22,6.49,6.49,0,0,1,0,1.08,7.67,7.67,0,0,0,.38,1.5c.14.47.23,1.44.67,1.62a1.33,1.33,0,0,0,1.18-.27c.62-1-.59-3.68-1.18-4.74-.37-.67-1.87-1.44-2.09-2.17a4.86,4.86,0,0,1,.34-2,7.21,7.21,0,0,1,1.83-.88,3.67,3.67,0,0,1,2.15.6c.35.4-.06,1.63,0,2.17a17.84,17.84,0,0,0,.39,1.76c.21.85.6,2.57.92,3.38s.72,2.18,1.31,2.57c1.07.73,3.83.36,5.1.41.72,0,2.32.46,2.89,0a4.13,4.13,0,0,0,.78-3.25c-1-3.11,1.88-3.83,2.23-3.65s1.67,1.21,1.59,1.65a4.89,4.89,0,0,1-.67,2.68,5.37,5.37,0,0,0-.92,1.62c0,.48-.26,1.51,0,1.9a1.85,1.85,0,0,0,1.44.54c.43-.11.93-1,1.18-1.35.48-.73,1.19-2.33,1.57-3.12a11.93,11.93,0,0,0,.92-2c.16-.86-.53-2.74-.14-3.52a1.67,1.67,0,0,1,1-.67c3.8,0,3.38,3.83,3.28,4.19a4.77,4.77,0,0,1-.92,1.49c-.22.23-.84.44-1.05.68a14.61,14.61,0,0,0-2,3.62c-.23.62-1.24,1.84-1,2.47.39,1.16,2.92,2.15,3.8,3,.72.68,1.7,2.65,2.62,3s2.77-.41,3.66-.68,3.05-.61,3.41-1.49,2.78-2.27,3.14.54a15.16,15.16,0,0,1,.4,3.39c-.08.41-.41,1.32-.79,1.49s-1.36-.59-1.83-.55a8.3,8.3,0,0,0-2,1c-.69.34-2.42.65-2.75,1.36-.25.53.4,1.72.53,2.3a16.05,16.05,0,0,0,.65,3.11A5.11,5.11,0,0,0,155,79.29a13.58,13.58,0,0,0,3.41.95A5.71,5.71,0,0,0,161,80.1c.43-.21.55-1,1-1.22a1.52,1.52,0,0,1,1,0,1.93,1.93,0,0,1,.52,1,9.16,9.16,0,0,1-.13,2.71c-.06.35-.11,1.16-.39,1.35a1.54,1.54,0,0,1-1.18-.13c-.24-.15-.43-.48-.69-.6a6.43,6.43,0,0,0-2.32-.08c-1,.06-3.26-.5-4.19,0-.71.38-1.45,2-1.84,2.71-.65,1.22-2.46,3.8-2.09,5.14.19.68,2,1,2.68,1.22s1.61,0,2.16.41,1.79,3.19.53,3.92a2.66,2.66,0,0,1-3.44-.63c-.65-.69-2.28-2.13-3.19-1.94s-1.9,1.54-2.41,2.17-1,2.1-1.57,2.57c-.41.33-1.65.25-2,.67-.63.87-.22,3,.1,4a9.44,9.44,0,0,0,2.12,3.58c.6.44.09,2.89-1.31,3.11a2.8,2.8,0,0,1-2.09-1.22,13.43,13.43,0,0,1-.18-1.92,13.31,13.31,0,0,0-2.31-4.31,3.66,3.66,0,0,0-1.18-.94c-.79-.23-2.56-.36-2.59.49s-.24,6.9-.24,6.9,1,1.31,1,1.66c-.1.86-2.5,2.06-2.92,1.36-.22-.38-1-.94-1.13-1.34s.31-1.62.39-2.17a12.33,12.33,0,0,0,.13-1.35c0-1.4.36-4.63-.65-5.55-.67-.61-2.66.06-3.54,0a5.85,5.85,0,0,0-.92-.14,2.44,2.44,0,0,0-1.31.54c-.46.62-.28,2.34-.39,3.12a12.74,12.74,0,0,1-.39,2.7,4.41,4.41,0,0,1-1.18,1.36c-.29.19-.92.63-1.26.59-.73-.09-1.92-1.54-2.15-2.08a3.11,3.11,0,0,1,.53-2.57c.35-.3.85-.23,1.2-.55a5.09,5.09,0,0,0,1-3c0-.31.21-1,0-1.22-.47-.52-2.1-.38-2.75-.14-.5.19-1.19,1.1-1.57,1.49a11,11,0,0,0-2.09,2.44c-.31.78,0,2.55-.13,3.38-.08.46-.13,1.56-.53,1.76s-1.39-.47-1.83-.67-1.77-.7-2.1-1.22a2.31,2.31,0,0,1-.13-1.63c.25-.46,1.49-.55,1.84-.94.54-.62.86-2.35,1.17-3.12s1.19-2.64,1.58-3.52c.13-.3.6-.89.52-1.22-.17-.7-1.76-1.22-2.23-1.76s-1.26-2.42-1.83-3.11a2.94,2.94,0,0,0-.92-.81,2,2,0,0,0-1.18.13c-.44.28-.66,1.67-1.17,1.76s-1-.64-1.31-.94a4.06,4.06,0,0,1-1-1.76,2.38,2.38,0,0,1,.65-1.36c.26-.23,1-.25,1.31-.4s1-.49,1.18-.82c.31-.67-.14-2.24-.26-3-.07-.41,0-1.41-.39-1.62-.56-.34-1.87.53-2.49.68-1.43.34-4.45.54-5.76,1.22a4.48,4.48,0,0,0-1,.94c-.25.31-.41,1.32-.79,1.36-.57.06-1.27-1.25-1.57-1.76a7,7,0,0,1-.52-1.63c-.1-.5-.41-1.61-.13-2a2.36,2.36,0,0,1,1.7-.54c.45,0,1.12.92,1.57,1,1.76.09,4.89-2.08,6.42-3a4.32,4.32,0,0,0,1.31-1c.79-1.31.49-4.61.91-6.09.12-.39.75-1.09.66-1.49-.22-.91-2.08-1.86-2.88-2.3a8.36,8.36,0,0,0-2.36-.81c-.79-.08-2.63,1-3.14.4-.38-.45.42-1.75.65-2.3s.58-1.59,1-1.76a2.34,2.34,0,0,1,1.7.68c.2.2.21.87.4,1.08,1,1.09,3.74,2.14,5.1,2.57.22.07.73.28.92.14a1.18,1.18,0,0,0,.13-1c-.33-1-2.1-2.2-2.88-2.84a11.82,11.82,0,0,0-2.36-1.63c-.49-.19-1.73.13-2.09-.27s-.19-1.95,0-2.57a3.17,3.17,0,0,1,.91-1.35C107,58.8,108.29,58.23,108.79,58.58Z"/></g></g></svg>